<svg width="100" height="35" fill="none" xmlns="http://www.w3.org/2000/svg"><path d="M0 35h37.42l11.136-5.517-26.774-.197-7.836-.378 5.41-11.933L28.047 1.4 29.21 0 10.665.7 7.633 11.9 4.6 22.148 0 35z" fill="#A60000"/><path d="M29.421 14.08l-12.25 16.134 20.203-5.296.645-.12 7.095-11.386-15.693.668zm7.159-6.005l-4.287 3.736 14.905-.069 3.87-3.724 1.935-.008-16.422.065z" fill="#A60000"/><path fill-rule="evenodd" clip-rule="evenodd" d="M50.634 9.097c.802-3.244 34.502-3.917 38.178-.517 1.785 1.652 1.99 2.924-1.838 4.353-6.957 2.597-30.624.6-30.624.6 3.892 6.964-1.838 12.907-1.838 12.907l-19.6 4.353 3.441-2.864 7.584-9.183 4.697-9.65s22.091 5.326 28.99 3.22l3.063-3.285c-1.55-2.347-16.177-1.46-26.337-.682-2.218.17-3.46.855-5.716.748z" fill="#A60000"/><path d="M65.253 8.837c-1.625.32-2.943.529-3.562 1.32-1.138 1.456 5.005.263 8.212.431l8.212.43s-2.11-.88-3.675-1.28c-3.233-.829-5.796-1.567-9.187-.901zm18.77 17.336l2.25.44.281.147-2.531-.587z" fill="#A60000"/><path d="M89.497 31.59L100 17.383H89.437l-5.414 8.79 2.531.587 4.057-6.777h4.874l-7.318 10.039-3.02-1.352-7.032 3.714 11.382-.794z" fill="#A60000"/><path fill-rule="evenodd" clip-rule="evenodd" d="M71.138 23.274l13.313-.255 1.586-2.443s.87-1.627.994-1.812c1.538-2.301-4.932-2.448-4.932-2.448s-7.07-.4-7.595-.44c-.656-.051-12.097-.588-12.097-.588s-.05-.318-.843 2.512c-.272.97-1.931 5.482-2.25 6.448L56.35 31.59s2.88.6 3.722.786c.66.078 4.313.618 4.313.618s.885-5.903 1.21-8.446l1.256.077 11.264 7.76 7.033-3.715 1.406-1.91-2.531-.587-4.22-.882-8.665-2.017zm-3.456-5.567s3.757.047 6.214.093c1.287.024 3.14.132 3.14.132s2.003.076 3.094.587c1.09.511.662 2.72-1.216 3.236-1.879.516-13.811 0-13.811 0s.773-1.158 1.243-1.914c.518-.833 1.337-2.134 1.337-2.134z" fill="#A60000"/></svg>